HIERARCHY
ROOT Hips
{
	OFFSET 0.00000 0.00000 0.00000
	CHANNELS 6 Xposition Yposition Zposition Yrotation Zrotation Xrotation 
	JOINT Lumbar
	{
		OFFSET 0 0 0
		CHANNELS 3 Zrotation Xrotation Yrotation
		JOINT Neck
		{
			OFFSET 0.00 0.2701 0.00
			CHANNELS 3 Zrotation Xrotation Yrotation
			End Site
			{
				OFFSET 0.00 0.1379 0.00
			}
		}
		JOINT RightShoulder
		{
			OFFSET 0.0119 0.2289 0.1181
			CHANNELS 3 Zrotation Xrotation Yrotation
			JOINT RightElbow
			{
				OFFSET 0.00 -0.1475 0.00
				CHANNELS 2 Zrotation Yrotation
				JOINT RightWrist
				{
					OFFSET 0.00 -0.1605 0.00
					CHANNELS 2 Zrotation Xrotation
					End Site
					{
						OFFSET 0.0040 -0.1068 0.0006
					}
				}
			}
		}
		JOINT LeftShoulder
		{
			OFFSET 0.0119 0.2289 -0.1181
			CHANNELS 3 Zrotation Xrotation Yrotation
			JOINT LeftElbow
			{
				OFFSET 0.00 -0.1475 0.00
				CHANNELS 2 Zrotation Yrotation
				JOINT LeftWrist
				{
					OFFSET 0.00 -0.1605 0.00
					CHANNELS 2 Zrotation Xrotation
					End Site
					{
						OFFSET 0.0040 -0.1068 -0.0006
					}
				}
			}
		}
	}
	JOINT RightHip
	{
		OFFSET 0.0316 -0.0424 0.0458
		CHANNELS 3 Zrotation Xrotation Yrotation
		JOINT RightKnee
		{
			OFFSET 0.00 -0.2438 0.00
			CHANNELS 1 Zrotation
			JOINT RightAnkle
			{
				OFFSET 0.00 -0.2449 0.00
				CHANNELS 3 Zrotation Xrotation Yrotation
				End Site
				{
					OFFSET 0.1237 -0.0542 0.0051
				}
			}
		}
	}
	JOINT LeftHip
	{
		OFFSET 0.0316 -0.0424 -0.0458
		CHANNELS 3 Zrotation Xrotation Yrotation
		JOINT LeftKnee
		{
			OFFSET 0.00 -0.2438 0.00
			CHANNELS 1 Zrotation
			JOINT LeftAnkle
			{
				OFFSET 0.00 -0.2449 0.00
				CHANNELS 3 Zrotation Xrotation Yrotation
				End Site
				{
					OFFSET 0.1237 -0.0542 -0.0051
				}
			}
		}
	}
}
MOTION
Frames: 22
Frame Time: 0.02
1.12939 0.19215 0.08588 391.96056 -57.33366 -8.43171 0.43902 0.93725 12.17402 3.81386 -3.66052 -2.11994 70.8343 -12.99882 42.56887 10.70015 100.05832 -24.75279 -4.58883 44.90647 34.00324 -23.82884 16.88379 -96.62174 -31.42591 3.39943 86.78754 -1.62448 -15.34852 -40.44153 -6.27315 -2.13609 -3.26249 81.00208 21.95528 2.01496 -27.53658 -9.36167 2.5636 3.61132
1.13065 0.19236 0.0853 391.56429 -57.98771 -9.21097 0.25332 0.8346 11.97782 4.40727 -3.75362 -2.11994 71.31097 -13.04205 43.98058 11.57887 100.11519 -25.15032 -4.10994 46.70897 35.57788 -22.89626 15.47201 -94.60008 -30.90949 3.40669 87.46074 -1.31776 -15.40019 -40.54808 -6.27711 -2.1938 -3.29333 81.28629 22.07676 2.04589 -26.32273 -9.52491 2.56639 3.62347
1.13148 0.19237 0.0842 390.80083 -58.63648 -10.14661 0.09879 0.58817 11.85398 5.15433 -3.96183 -2.11994 71.69874 -13.01306 44.67089 12.55484 100.20987 -25.52105 -3.75515 48.62671 37.17684 -21.95275 14.40261 -92.40334 -30.47968 3.49795 88.25934 -0.8438 -15.09123 -40.76859 -6.28377 -2.27899 -3.33769 81.35278 22.18802 1.73738 -24.94613 -9.79966 2.59286 3.65357
1.1325 0.19247 0.08332 390.22492 -59.28522 -11.00522 -0.07764 0.42034 11.68569 5.82957 -4.12435 -2.11994 72.13925 -13.00406 45.67292 13.45878 100.25468 -25.89179 -3.36781 50.54703 38.72618 -20.99806 13.17377 -90.35811 -30.01435 3.57108 88.99335 -0.46371 -14.96962 -40.9367 -6.28918 -2.34974 -3.37477 81.54775 22.30094 1.5749 -23.69293 -10.0154 2.60761 3.67443
1.13353 0.19256 0.08247 389.56644 -59.94691 -11.88932 -0.21894 0.19962 11.56457 6.51609 -4.25378 -2.11994 72.51972 -13.05528 46.74851 14.48715 100.42509 -26.31812 -2.87802 52.23935 40.44196 -20.17617 11.94913 -88.03103 -29.56371 3.56153 89.75959 -0.01414 -14.75871 -41.10544 -6.29465 -2.42781 -3.41622 81.61985 22.42528 1.4638 -22.22259 -10.26313 2.62636 3.69967
1.13444 0.19263 0.08145 388.98782 -60.57994 -12.75973 -0.42601 0.05387 11.36272 7.21305 -4.48217 -2.11994 73.00762 -12.95986 47.49407 15.27649 100.35466 -26.61993 -2.63021 54.4317 41.81215 -18.9937 10.80529 -86.22238 -29.0667 3.74132 90.48908 0.33342 -14.64392 -41.29968 -6.30071 -2.49747 -3.45194 81.89552 22.52459 1.1622 -21.16764 -10.47186 2.64216 3.72001
1.13513 0.1927 0.08008 388.75696 -61.12712 -13.52509 -0.83421 0.1483 10.92406 7.91923 -4.94678 -2.11994 73.80821 -12.4985 47.54724 15.38558 99.52149 -26.59452 -3.03989 57.98326 42.26274 -17.54532 9.75645 -86.15193 -28.74251 4.45213 91.07778 0.34933 -14.88937 -41.54889 -6.30724 -2.53756 -3.46844 82.78582 22.54791 0.37153 -21.31897 -10.54643 2.64753 3.72392
1.13572 0.19277 0.07854 388.61142 -61.64634 -14.2765 -1.30801 0.32275 10.40132 8.62708 -5.50927 -2.11994 74.72185 -11.88752 47.28594 15.2492 98.4608 -26.44318 -3.68561 62.03055 42.35723 -15.61961 8.78651 -86.58321 -28.32223 5.34724 91.62635 0.25908 -15.24194 -41.81798 -6.31434 -2.56824 -3.47874 83.88822 22.54791 -0.59501 -21.89228 -10.57825 2.64871 3.72214
1.13636 0.19284 0.07707 388.40286 -62.18346 -15.05258 -1.74438 0.46178 9.91475 9.32217 -6.0334 -2.11994 75.58885 -11.33044 47.13943 15.2219 97.56417 -26.34134 -4.211 65.84842 42.58803 -13.40916 7.81067 -86.58212 -27.71644 6.13675 92.1992 0.22429 -15.53919 -42.07021 -6.32155 -2.60325 -3.49205 84.89397 22.56515 -1.45182 -22.26045 -10.62948 2.64931 3.72191
1.137 0.19288 0.07563 388.28621 -62.6997 -15.75583 -2.21149 0.59306 9.43892 10.07328 -6.53565 -2.11994 76.43364 -10.83034 47.0828 15.20842 96.41673 -26.26782 -4.79607 69.69533 42.92708 -13.2305 6.72016 -87.34204 -28.02343 7.01345 92.75215 0.16541 -15.85002 -42.35924 -6.32744 -2.63932 -3.50519 85.89393 22.55517 -2.43967 -22.67714 -10.68441 2.66043 3.72629
1.1376 0.193 0.0741 388.00022 -63.25139 -16.60659 -2.63093 0.75986 8.92028 10.70613 -7.10519 -2.11994 77.35146 -10.17706 46.77833 15.10674 95.73209 -26.11006 -5.31095 73.58853 42.95621 -8.81427 5.88278 -86.75828 -26.47785 7.76119 93.33386 0.12854 -16.16524 -42.57504 -6.33604 -2.67016 -3.51684 86.95831 22.59501 -3.19988 -23.09771 -10.72028 2.6493 3.71996
1.13812 0.19336 0.0724 387.25381 -63.91968 -17.856 -2.89983 1.01875 8.29972 11.01078 -7.83702 -2.11994 78.45443 -9.13676 45.82904 14.81919 96.42445 -25.71279 -5.57639 77.56787 42.21092 8.11507 5.7243 -81.28436 -19.20678 8.01833 94.01698 0.18517 -16.44373 -42.58188 -6.35314 -2.69269 -3.52777 88.15618 22.79107 -3.21823 -23.40463 -10.71152 2.56909 3.68123
1.13861 0.1938 0.07063 386.33149 -64.62216 -19.25496 -3.11917 1.30889 7.63941 11.19578 -8.63271 -2.11994 79.62505 -7.94812 44.65153 14.45121 97.58169 -25.24182 -5.76193 81.5607 41.16598 29.12151 5.81624 -74.61797 -10.18561 8.15299 94.72737 0.26581 -16.7276 -42.5142 -6.37276 -2.70956 -3.53708 89.4107 23.03581 -3.01155 -23.70541 -10.68488 2.46799 3.63256
1.13912 0.1942 0.06889 385.47213 -65.30153 -20.59362 -3.36331 1.57644 6.99975 11.43559 -9.39808 -2.11994 80.75827 -6.82792 43.607 14.12119 98.49806 -24.83 -5.98216 85.49525 40.26312 47.64937 5.79238 -69.2185 -2.38933 8.40523 95.41684 0.32986 -17.0274 -42.48117 -6.39041 -2.7262 -3.54574 90.63615 23.24973 -2.95404 -24.02401 -10.66756 2.38214 3.59119
1.13962 0.19462 0.06716 384.68382 -66.01291 -21.90295 -3.60025 1.88179 6.34633 11.67378 -10.17171 -2.11994 81.92485 -5.69735 42.42853 13.77701 99.53338 -24.30727 -6.21795 89.66956 39.32699 68.82582 5.78012 -60.86257 7.19555 8.41327 96.14163 0.41315 -17.25873 -42.44522 -6.41139 -2.75382 -3.55975 91.88513 23.49917 -2.71042 -24.29482 -10.64407 2.27233 3.53812
1.14011 0.19501 0.06538 383.70896 -66.6648 -23.30478 -3.83937 2.1152 5.71316 11.88682 -10.94292 -2.11994 83.03481 -4.55606 41.47773 13.44606 100.43196 -23.99741 -6.39874 93.33841 38.38854 85.45985 5.80182 -58.26572 13.50474 8.88502 96.79906 0.46488 -17.6256 -42.39784 -6.42623 -2.75805 -3.56267 93.09303 23.68697 -2.79171 -24.65691 -10.62938 2.2069 3.50681
1.14056 0.19531 0.06347 382.22716 -67.15515 -24.96028 -4.0977 2.13892 5.14776 12.05901 -11.68218 -2.11994 83.98517 -3.41599 41.2233 13.17564 100.86139 -24.31279 -6.45075 95.62616 37.56058 88.40331 5.85821 -72.78614 10.033 10.77735 97.26957 0.41084 -18.42605 -42.33269 -6.42193 -2.69283 -3.53225 94.19562 23.68849 -3.8834 -25.28134 -10.6464 2.2744 3.54077
1.141 0.19558 0.0615 380.57113 -67.58236 -26.69617 -4.3591 2.08949 4.6051 12.20949 -12.4172 -2.11994 84.87239 -2.27336 41.20395 12.92202 101.1351 -24.84135 -6.44854 97.39693 36.73325 86.63304 5.93968 -92.95854 3.26004 13.11617 97.66994 0.32683 -19.35125 -42.25918 -6.41168 -2.60546 -3.49132 95.24902 23.62706 -5.29788 -25.99347 -10.67254 2.3863 3.59648
1.14143 0.19586 0.05956 379.01568 -68.03156 -28.37385 -4.61844 2.07532 4.04986 12.37113 -13.16116 -2.11994 85.78024 -1.13456 41.07264 12.65871 101.4655 -25.261 -6.46728 99.39255 35.88014 87.15116 6.00733 -109.94868 -1.79896 15.18105 98.09953 0.26576 -20.17865 -42.1925 -6.4052 -2.53238 -3.4573 96.31044 23.59746 -6.52575 -26.65838 -10.6927 2.47446 3.64047
1.14189 0.19615 0.0576 377.35839 -68.51093 -30.15271 -4.88015 2.05352 3.49875 12.52572 -13.88154 -2.11994 86.72776 0.02625 40.96047 12.39988 101.86754 -25.73126 -6.49792 101.43959 35.12817 87.30606 6.09245 -129.53036 -7.69437 17.55351 98.54344 0.1672 -21.17846 -42.11108 -6.39429 -2.44134 -3.41426 97.43757 23.55648 -7.91516 -27.35702 -10.71988 2.57699 3.69191
1.1423 0.19641 0.05567 375.88088 -68.91117 -31.73237 -5.13672 2.03015 2.94987 12.68814 -14.6445 -2.11994 87.57276 1.13302 40.86015 12.13835 102.08218 -26.14461 -6.49322 103.24648 34.1644 86.90513 6.14579 -145.01935 -12.6603 19.37808 98.93776 0.13795 -21.85048 -42.05852 -6.39116 -2.38245 -3.38747 98.41153 23.52292 -9.04674 -28.00299 -10.73492 2.66032 3.73308
1.14261 0.19661 0.0538 374.88594 -69.11508 -32.7886 -5.39172 2.01704 2.3604 12.90612 -15.56425 -2.11994 88.18339 2.14683 40.79816 11.85244 101.77383 -26.37643 -6.39249 104.5993 32.66224 87.33954 6.09154 -148.30254 -14.21183 19.71358 99.23522 0.31871 -21.57221 -42.09512 -6.4108 -2.41809 -3.40864 99.00605 23.53077 -9.39631 -28.50925 -10.71376 2.68067 3.74095
